<mxfile host="app.diagrams.net" modified="2023-11-05T06:35:28.857Z" agent="Mozilla/5.0 (Windows NT 10.0; Win64; x64) AppleWebKit/537.36 (KHTML, like Gecko) Chrome/118.0.0.0 Safari/537.36" etag="U233wOSUtXnXj5-HT1iV" version="22.0.8" type="device">
  <diagram name="페이지-1" id="q6sx6Ge_Cbd8r_3c1lGh">
    <mxGraphModel dx="1687" dy="886" grid="1" gridSize="10" guides="1" tooltips="1" connect="1" arrows="1" fold="1" page="1" pageScale="1" pageWidth="1169" pageHeight="827" math="0" shadow="0">
      <root>
        <mxCell id="0" />
        <mxCell id="1" parent="0" />
        <mxCell id="7aAcNcoSvBuqV2yAwHtB-1" value="&lt;font style=&quot;font-size: 14px;&quot;&gt;교과목&lt;/font&gt;" style="rounded=0;whiteSpace=wrap;html=1;" vertex="1" parent="1">
          <mxGeometry x="495" y="550" width="80" height="40" as="geometry" />
        </mxCell>
        <mxCell id="7aAcNcoSvBuqV2yAwHtB-2" value="&lt;font style=&quot;font-size: 14px;&quot;&gt;학생&lt;/font&gt;" style="rounded=0;whiteSpace=wrap;html=1;" vertex="1" parent="1">
          <mxGeometry x="340" y="456" width="80" height="40" as="geometry" />
        </mxCell>
        <mxCell id="7aAcNcoSvBuqV2yAwHtB-3" value="&lt;font style=&quot;font-size: 14px;&quot;&gt;교수&lt;br&gt;&lt;/font&gt;" style="rounded=0;whiteSpace=wrap;html=1;" vertex="1" parent="1">
          <mxGeometry x="950" y="550" width="80" height="40" as="geometry" />
        </mxCell>
        <mxCell id="7aAcNcoSvBuqV2yAwHtB-8" value="&lt;u&gt;학번&lt;/u&gt;" style="ellipse;whiteSpace=wrap;html=1;" vertex="1" parent="1">
          <mxGeometry x="50" y="560" width="80" height="40" as="geometry" />
        </mxCell>
        <mxCell id="7aAcNcoSvBuqV2yAwHtB-9" value="이름" style="ellipse;whiteSpace=wrap;html=1;" vertex="1" parent="1">
          <mxGeometry x="50" y="506" width="80" height="40" as="geometry" />
        </mxCell>
        <mxCell id="7aAcNcoSvBuqV2yAwHtB-10" value="학과" style="ellipse;whiteSpace=wrap;html=1;" vertex="1" parent="1">
          <mxGeometry x="50" y="450" width="80" height="40" as="geometry" />
        </mxCell>
        <mxCell id="7aAcNcoSvBuqV2yAwHtB-11" value="학년" style="ellipse;whiteSpace=wrap;html=1;" vertex="1" parent="1">
          <mxGeometry x="50" y="390" width="80" height="40" as="geometry" />
        </mxCell>
        <mxCell id="7aAcNcoSvBuqV2yAwHtB-12" value="접속비밀번호" style="ellipse;whiteSpace=wrap;html=1;" vertex="1" parent="1">
          <mxGeometry x="50" y="330" width="80" height="40" as="geometry" />
        </mxCell>
        <mxCell id="7aAcNcoSvBuqV2yAwHtB-15" value="" style="endArrow=none;html=1;rounded=0;exitX=1;exitY=0.5;exitDx=0;exitDy=0;entryX=0;entryY=0.5;entryDx=0;entryDy=0;" edge="1" parent="1" source="7aAcNcoSvBuqV2yAwHtB-10" target="7aAcNcoSvBuqV2yAwHtB-2">
          <mxGeometry width="50" height="50" relative="1" as="geometry">
            <mxPoint x="680" y="286" as="sourcePoint" />
            <mxPoint x="340" y="406" as="targetPoint" />
          </mxGeometry>
        </mxCell>
        <mxCell id="7aAcNcoSvBuqV2yAwHtB-16" value="" style="endArrow=none;html=1;rounded=0;entryX=0;entryY=0.5;entryDx=0;entryDy=0;exitX=1;exitY=0.5;exitDx=0;exitDy=0;" edge="1" parent="1" source="7aAcNcoSvBuqV2yAwHtB-11" target="7aAcNcoSvBuqV2yAwHtB-2">
          <mxGeometry width="50" height="50" relative="1" as="geometry">
            <mxPoint x="370" y="66" as="sourcePoint" />
            <mxPoint x="370" y="-14" as="targetPoint" />
          </mxGeometry>
        </mxCell>
        <mxCell id="7aAcNcoSvBuqV2yAwHtB-17" value="" style="endArrow=none;html=1;rounded=0;entryX=0;entryY=0.5;entryDx=0;entryDy=0;exitX=1;exitY=0.5;exitDx=0;exitDy=0;" edge="1" parent="1" source="7aAcNcoSvBuqV2yAwHtB-12" target="7aAcNcoSvBuqV2yAwHtB-2">
          <mxGeometry width="50" height="50" relative="1" as="geometry">
            <mxPoint x="380" y="76" as="sourcePoint" />
            <mxPoint x="380" y="-4" as="targetPoint" />
          </mxGeometry>
        </mxCell>
        <mxCell id="7aAcNcoSvBuqV2yAwHtB-18" value="" style="endArrow=none;html=1;rounded=0;exitX=1;exitY=0.5;exitDx=0;exitDy=0;entryX=0;entryY=0.5;entryDx=0;entryDy=0;" edge="1" parent="1" source="7aAcNcoSvBuqV2yAwHtB-9" target="7aAcNcoSvBuqV2yAwHtB-2">
          <mxGeometry width="50" height="50" relative="1" as="geometry">
            <mxPoint x="390" y="86" as="sourcePoint" />
            <mxPoint x="340" y="536" as="targetPoint" />
          </mxGeometry>
        </mxCell>
        <mxCell id="7aAcNcoSvBuqV2yAwHtB-19" value="" style="endArrow=none;html=1;rounded=0;entryX=0;entryY=0.5;entryDx=0;entryDy=0;exitX=1;exitY=0.5;exitDx=0;exitDy=0;" edge="1" parent="1" source="7aAcNcoSvBuqV2yAwHtB-8" target="7aAcNcoSvBuqV2yAwHtB-2">
          <mxGeometry width="50" height="50" relative="1" as="geometry">
            <mxPoint x="145" y="256" as="sourcePoint" />
            <mxPoint x="145" y="176" as="targetPoint" />
          </mxGeometry>
        </mxCell>
        <mxCell id="7aAcNcoSvBuqV2yAwHtB-20" value="&lt;u&gt;교수번호&lt;/u&gt;" style="ellipse;whiteSpace=wrap;html=1;" vertex="1" parent="1">
          <mxGeometry x="810" y="680" width="80" height="40" as="geometry" />
        </mxCell>
        <mxCell id="7aAcNcoSvBuqV2yAwHtB-21" value="이름" style="ellipse;whiteSpace=wrap;html=1;" vertex="1" parent="1">
          <mxGeometry x="900" y="680" width="80" height="40" as="geometry" />
        </mxCell>
        <mxCell id="7aAcNcoSvBuqV2yAwHtB-22" value="학과" style="ellipse;whiteSpace=wrap;html=1;" vertex="1" parent="1">
          <mxGeometry x="990" y="680" width="80" height="40" as="geometry" />
        </mxCell>
        <mxCell id="7aAcNcoSvBuqV2yAwHtB-23" value="접속비밀번호" style="ellipse;whiteSpace=wrap;html=1;" vertex="1" parent="1">
          <mxGeometry x="1080" y="680" width="80" height="40" as="geometry" />
        </mxCell>
        <mxCell id="7aAcNcoSvBuqV2yAwHtB-24" value="" style="endArrow=none;html=1;rounded=0;entryX=0.5;entryY=1;entryDx=0;entryDy=0;exitX=0.5;exitY=0;exitDx=0;exitDy=0;" edge="1" parent="1" source="7aAcNcoSvBuqV2yAwHtB-23" target="7aAcNcoSvBuqV2yAwHtB-3">
          <mxGeometry width="50" height="50" relative="1" as="geometry">
            <mxPoint x="679" y="690" as="sourcePoint" />
            <mxPoint x="505" y="610" as="targetPoint" />
          </mxGeometry>
        </mxCell>
        <mxCell id="7aAcNcoSvBuqV2yAwHtB-25" value="" style="endArrow=none;html=1;rounded=0;entryX=0.5;entryY=1;entryDx=0;entryDy=0;exitX=0.5;exitY=0;exitDx=0;exitDy=0;" edge="1" parent="1" source="7aAcNcoSvBuqV2yAwHtB-22" target="7aAcNcoSvBuqV2yAwHtB-3">
          <mxGeometry width="50" height="50" relative="1" as="geometry">
            <mxPoint x="1130" y="690" as="sourcePoint" />
            <mxPoint x="995" y="600" as="targetPoint" />
          </mxGeometry>
        </mxCell>
        <mxCell id="7aAcNcoSvBuqV2yAwHtB-26" value="" style="endArrow=none;html=1;rounded=0;entryX=0.5;entryY=1;entryDx=0;entryDy=0;exitX=0.5;exitY=0;exitDx=0;exitDy=0;" edge="1" parent="1" source="7aAcNcoSvBuqV2yAwHtB-21" target="7aAcNcoSvBuqV2yAwHtB-3">
          <mxGeometry width="50" height="50" relative="1" as="geometry">
            <mxPoint x="1140" y="700" as="sourcePoint" />
            <mxPoint x="1005" y="610" as="targetPoint" />
          </mxGeometry>
        </mxCell>
        <mxCell id="7aAcNcoSvBuqV2yAwHtB-27" value="" style="endArrow=none;html=1;rounded=0;entryX=0.5;entryY=1;entryDx=0;entryDy=0;exitX=0.5;exitY=0;exitDx=0;exitDy=0;" edge="1" parent="1" source="7aAcNcoSvBuqV2yAwHtB-20" target="7aAcNcoSvBuqV2yAwHtB-3">
          <mxGeometry width="50" height="50" relative="1" as="geometry">
            <mxPoint x="1150" y="710" as="sourcePoint" />
            <mxPoint x="1015" y="620" as="targetPoint" />
          </mxGeometry>
        </mxCell>
        <mxCell id="7aAcNcoSvBuqV2yAwHtB-28" value="&lt;u&gt;학과이름&lt;/u&gt;" style="ellipse;whiteSpace=wrap;html=1;" vertex="1" parent="1">
          <mxGeometry x="405" y="260" width="80" height="40" as="geometry" />
        </mxCell>
        <mxCell id="7aAcNcoSvBuqV2yAwHtB-29" value="단과대학" style="ellipse;whiteSpace=wrap;html=1;" vertex="1" parent="1">
          <mxGeometry x="495" y="260" width="80" height="40" as="geometry" />
        </mxCell>
        <mxCell id="7aAcNcoSvBuqV2yAwHtB-30" value="학과사무실" style="ellipse;whiteSpace=wrap;html=1;" vertex="1" parent="1">
          <mxGeometry x="585" y="260" width="80" height="40" as="geometry" />
        </mxCell>
        <mxCell id="7aAcNcoSvBuqV2yAwHtB-31" value="&lt;u&gt;교과목번호&lt;/u&gt;" style="ellipse;whiteSpace=wrap;html=1;" vertex="1" parent="1">
          <mxGeometry x="270" y="680" width="80" height="40" as="geometry" />
        </mxCell>
        <mxCell id="7aAcNcoSvBuqV2yAwHtB-32" value="교과목이름" style="ellipse;whiteSpace=wrap;html=1;" vertex="1" parent="1">
          <mxGeometry x="360" y="680" width="80" height="40" as="geometry" />
        </mxCell>
        <mxCell id="7aAcNcoSvBuqV2yAwHtB-33" value="대상학년" style="ellipse;whiteSpace=wrap;html=1;" vertex="1" parent="1">
          <mxGeometry x="450" y="680" width="80" height="40" as="geometry" />
        </mxCell>
        <mxCell id="7aAcNcoSvBuqV2yAwHtB-34" value="학기" style="ellipse;whiteSpace=wrap;html=1;" vertex="1" parent="1">
          <mxGeometry x="540" y="680" width="80" height="40" as="geometry" />
        </mxCell>
        <mxCell id="7aAcNcoSvBuqV2yAwHtB-35" value="" style="endArrow=none;html=1;rounded=0;entryX=0.5;entryY=0;entryDx=0;entryDy=0;exitX=0.5;exitY=1;exitDx=0;exitDy=0;" edge="1" parent="1" source="7aAcNcoSvBuqV2yAwHtB-30" target="7aAcNcoSvBuqV2yAwHtB-64">
          <mxGeometry width="50" height="50" relative="1" as="geometry">
            <mxPoint x="320" y="40" as="sourcePoint" />
            <mxPoint x="535" y="270" as="targetPoint" />
          </mxGeometry>
        </mxCell>
        <mxCell id="7aAcNcoSvBuqV2yAwHtB-36" value="" style="endArrow=none;html=1;rounded=0;entryX=0.5;entryY=0;entryDx=0;entryDy=0;exitX=0.5;exitY=1;exitDx=0;exitDy=0;" edge="1" parent="1" source="7aAcNcoSvBuqV2yAwHtB-29" target="7aAcNcoSvBuqV2yAwHtB-64">
          <mxGeometry width="50" height="50" relative="1" as="geometry">
            <mxPoint x="330" y="50" as="sourcePoint" />
            <mxPoint x="535" y="270" as="targetPoint" />
          </mxGeometry>
        </mxCell>
        <mxCell id="7aAcNcoSvBuqV2yAwHtB-37" value="" style="endArrow=none;html=1;rounded=0;entryX=0.5;entryY=0;entryDx=0;entryDy=0;exitX=0.5;exitY=1;exitDx=0;exitDy=0;" edge="1" parent="1" source="7aAcNcoSvBuqV2yAwHtB-28" target="7aAcNcoSvBuqV2yAwHtB-64">
          <mxGeometry width="50" height="50" relative="1" as="geometry">
            <mxPoint x="540" y="40" as="sourcePoint" />
            <mxPoint x="535" y="270" as="targetPoint" />
          </mxGeometry>
        </mxCell>
        <mxCell id="7aAcNcoSvBuqV2yAwHtB-38" value="" style="endArrow=none;html=1;rounded=0;entryX=0.5;entryY=1;entryDx=0;entryDy=0;exitX=0.5;exitY=0;exitDx=0;exitDy=0;" edge="1" parent="1" source="7aAcNcoSvBuqV2yAwHtB-31" target="7aAcNcoSvBuqV2yAwHtB-1">
          <mxGeometry width="50" height="50" relative="1" as="geometry">
            <mxPoint x="515" y="630" as="sourcePoint" />
            <mxPoint x="605" y="550" as="targetPoint" />
          </mxGeometry>
        </mxCell>
        <mxCell id="7aAcNcoSvBuqV2yAwHtB-39" value="구분" style="ellipse;whiteSpace=wrap;html=1;" vertex="1" parent="1">
          <mxGeometry x="625" y="680" width="80" height="40" as="geometry" />
        </mxCell>
        <mxCell id="7aAcNcoSvBuqV2yAwHtB-40" value="학점수" style="ellipse;whiteSpace=wrap;html=1;" vertex="1" parent="1">
          <mxGeometry x="715" y="680" width="80" height="40" as="geometry" />
        </mxCell>
        <mxCell id="7aAcNcoSvBuqV2yAwHtB-41" value="" style="endArrow=none;html=1;rounded=0;entryX=0.5;entryY=1;entryDx=0;entryDy=0;exitX=0.5;exitY=0;exitDx=0;exitDy=0;" edge="1" parent="1" source="7aAcNcoSvBuqV2yAwHtB-32" target="7aAcNcoSvBuqV2yAwHtB-1">
          <mxGeometry width="50" height="50" relative="1" as="geometry">
            <mxPoint x="320" y="690" as="sourcePoint" />
            <mxPoint x="545" y="610" as="targetPoint" />
          </mxGeometry>
        </mxCell>
        <mxCell id="7aAcNcoSvBuqV2yAwHtB-42" value="" style="endArrow=none;html=1;rounded=0;exitX=0.5;exitY=0;exitDx=0;exitDy=0;entryX=0.5;entryY=1;entryDx=0;entryDy=0;" edge="1" parent="1" source="7aAcNcoSvBuqV2yAwHtB-33" target="7aAcNcoSvBuqV2yAwHtB-1">
          <mxGeometry width="50" height="50" relative="1" as="geometry">
            <mxPoint x="330" y="700" as="sourcePoint" />
            <mxPoint x="555" y="630" as="targetPoint" />
          </mxGeometry>
        </mxCell>
        <mxCell id="7aAcNcoSvBuqV2yAwHtB-43" value="" style="endArrow=none;html=1;rounded=0;entryX=0.5;entryY=1;entryDx=0;entryDy=0;exitX=0.5;exitY=0;exitDx=0;exitDy=0;" edge="1" parent="1" source="7aAcNcoSvBuqV2yAwHtB-34" target="7aAcNcoSvBuqV2yAwHtB-1">
          <mxGeometry width="50" height="50" relative="1" as="geometry">
            <mxPoint x="340" y="710" as="sourcePoint" />
            <mxPoint x="565" y="630" as="targetPoint" />
          </mxGeometry>
        </mxCell>
        <mxCell id="7aAcNcoSvBuqV2yAwHtB-44" value="" style="endArrow=none;html=1;rounded=0;entryX=0.5;entryY=1;entryDx=0;entryDy=0;exitX=0.5;exitY=0;exitDx=0;exitDy=0;" edge="1" parent="1" source="7aAcNcoSvBuqV2yAwHtB-39" target="7aAcNcoSvBuqV2yAwHtB-1">
          <mxGeometry width="50" height="50" relative="1" as="geometry">
            <mxPoint x="350" y="720" as="sourcePoint" />
            <mxPoint x="575" y="640" as="targetPoint" />
          </mxGeometry>
        </mxCell>
        <mxCell id="7aAcNcoSvBuqV2yAwHtB-45" value="" style="endArrow=none;html=1;rounded=0;entryX=0.5;entryY=1;entryDx=0;entryDy=0;exitX=0.5;exitY=0;exitDx=0;exitDy=0;" edge="1" parent="1" source="7aAcNcoSvBuqV2yAwHtB-40" target="7aAcNcoSvBuqV2yAwHtB-1">
          <mxGeometry width="50" height="50" relative="1" as="geometry">
            <mxPoint x="675" y="690" as="sourcePoint" />
            <mxPoint x="545" y="610" as="targetPoint" />
          </mxGeometry>
        </mxCell>
        <mxCell id="7aAcNcoSvBuqV2yAwHtB-47" value="개설" style="rhombus;whiteSpace=wrap;html=1;" vertex="1" parent="1">
          <mxGeometry x="730" y="550" width="100" height="40" as="geometry" />
        </mxCell>
        <mxCell id="7aAcNcoSvBuqV2yAwHtB-49" value="" style="endArrow=none;html=1;rounded=0;exitX=1;exitY=0.5;exitDx=0;exitDy=0;entryX=0;entryY=0.5;entryDx=0;entryDy=0;" edge="1" parent="1" source="7aAcNcoSvBuqV2yAwHtB-47" target="7aAcNcoSvBuqV2yAwHtB-3">
          <mxGeometry width="50" height="50" relative="1" as="geometry">
            <mxPoint x="770" y="526" as="sourcePoint" />
            <mxPoint x="820" y="476" as="targetPoint" />
          </mxGeometry>
        </mxCell>
        <mxCell id="7aAcNcoSvBuqV2yAwHtB-50" value="" style="shape=link;html=1;rounded=0;exitX=1;exitY=0.5;exitDx=0;exitDy=0;entryX=0;entryY=0.5;entryDx=0;entryDy=0;" edge="1" parent="1" source="7aAcNcoSvBuqV2yAwHtB-1" target="7aAcNcoSvBuqV2yAwHtB-47">
          <mxGeometry width="100" relative="1" as="geometry">
            <mxPoint x="740" y="496" as="sourcePoint" />
            <mxPoint x="840" y="496" as="targetPoint" />
          </mxGeometry>
        </mxCell>
        <mxCell id="7aAcNcoSvBuqV2yAwHtB-52" value="" style="endArrow=none;html=1;rounded=0;exitX=0.5;exitY=1;exitDx=0;exitDy=0;entryX=0.5;entryY=0;entryDx=0;entryDy=0;" edge="1" parent="1" source="7aAcNcoSvBuqV2yAwHtB-71" target="7aAcNcoSvBuqV2yAwHtB-47">
          <mxGeometry width="50" height="50" relative="1" as="geometry">
            <mxPoint x="780" y="606" as="sourcePoint" />
            <mxPoint x="780" y="590" as="targetPoint" />
          </mxGeometry>
        </mxCell>
        <mxCell id="7aAcNcoSvBuqV2yAwHtB-64" value="&lt;font style=&quot;font-size: 14px;&quot;&gt;학과&lt;/font&gt;" style="rounded=0;whiteSpace=wrap;html=1;" vertex="1" parent="1">
          <mxGeometry x="495" y="340" width="80" height="40" as="geometry" />
        </mxCell>
        <mxCell id="7aAcNcoSvBuqV2yAwHtB-66" value="소속" style="rhombus;whiteSpace=wrap;html=1;" vertex="1" parent="1">
          <mxGeometry x="485" y="456" width="100" height="40" as="geometry" />
        </mxCell>
        <mxCell id="7aAcNcoSvBuqV2yAwHtB-67" value="" style="endArrow=none;html=1;rounded=0;entryX=0;entryY=0.5;entryDx=0;entryDy=0;exitX=1;exitY=0.5;exitDx=0;exitDy=0;" edge="1" parent="1" source="7aAcNcoSvBuqV2yAwHtB-2" target="7aAcNcoSvBuqV2yAwHtB-66">
          <mxGeometry width="50" height="50" relative="1" as="geometry">
            <mxPoint x="230" y="366" as="sourcePoint" />
            <mxPoint x="350" y="486" as="targetPoint" />
          </mxGeometry>
        </mxCell>
        <mxCell id="7aAcNcoSvBuqV2yAwHtB-68" value="" style="endArrow=none;html=1;rounded=0;entryX=0.5;entryY=1;entryDx=0;entryDy=0;exitX=0.5;exitY=0;exitDx=0;exitDy=0;" edge="1" parent="1" source="7aAcNcoSvBuqV2yAwHtB-1" target="7aAcNcoSvBuqV2yAwHtB-66">
          <mxGeometry width="50" height="50" relative="1" as="geometry">
            <mxPoint x="430" y="486" as="sourcePoint" />
            <mxPoint x="495" y="486" as="targetPoint" />
          </mxGeometry>
        </mxCell>
        <mxCell id="7aAcNcoSvBuqV2yAwHtB-69" value="" style="endArrow=none;html=1;rounded=0;entryX=1;entryY=0.5;entryDx=0;entryDy=0;exitX=0.5;exitY=0;exitDx=0;exitDy=0;" edge="1" parent="1" source="7aAcNcoSvBuqV2yAwHtB-3" target="7aAcNcoSvBuqV2yAwHtB-66">
          <mxGeometry width="50" height="50" relative="1" as="geometry">
            <mxPoint x="545" y="560" as="sourcePoint" />
            <mxPoint x="545" y="506" as="targetPoint" />
            <Array as="points">
              <mxPoint x="990" y="476" />
            </Array>
          </mxGeometry>
        </mxCell>
        <mxCell id="7aAcNcoSvBuqV2yAwHtB-70" value="" style="shape=link;html=1;rounded=0;exitX=0.5;exitY=1;exitDx=0;exitDy=0;entryX=0.5;entryY=0;entryDx=0;entryDy=0;" edge="1" parent="1" source="7aAcNcoSvBuqV2yAwHtB-64" target="7aAcNcoSvBuqV2yAwHtB-66">
          <mxGeometry width="100" relative="1" as="geometry">
            <mxPoint x="590" y="450" as="sourcePoint" />
            <mxPoint x="690" y="450" as="targetPoint" />
          </mxGeometry>
        </mxCell>
        <mxCell id="7aAcNcoSvBuqV2yAwHtB-71" value="교재" style="ellipse;whiteSpace=wrap;html=1;" vertex="1" parent="1">
          <mxGeometry x="795" y="496" width="80" height="40" as="geometry" />
        </mxCell>
        <mxCell id="7aAcNcoSvBuqV2yAwHtB-75" value="" style="endArrow=none;html=1;rounded=0;exitX=0.5;exitY=1;exitDx=0;exitDy=0;entryX=0.5;entryY=0;entryDx=0;entryDy=0;" edge="1" parent="1" source="7aAcNcoSvBuqV2yAwHtB-1" target="7aAcNcoSvBuqV2yAwHtB-77">
          <mxGeometry width="50" height="50" relative="1" as="geometry">
            <mxPoint x="780" y="530" as="sourcePoint" />
            <mxPoint x="790" y="560" as="targetPoint" />
          </mxGeometry>
        </mxCell>
        <mxCell id="7aAcNcoSvBuqV2yAwHtB-77" value="연도" style="ellipse;whiteSpace=wrap;html=1;" vertex="1" parent="1">
          <mxGeometry x="180" y="680" width="80" height="40" as="geometry" />
        </mxCell>
        <mxCell id="7aAcNcoSvBuqV2yAwHtB-78" value="담당교수" style="ellipse;whiteSpace=wrap;html=1;" vertex="1" parent="1">
          <mxGeometry x="690" y="496" width="80" height="40" as="geometry" />
        </mxCell>
        <mxCell id="7aAcNcoSvBuqV2yAwHtB-79" value="" style="endArrow=none;html=1;rounded=0;exitX=0.5;exitY=1;exitDx=0;exitDy=0;entryX=0.5;entryY=0;entryDx=0;entryDy=0;" edge="1" parent="1" source="7aAcNcoSvBuqV2yAwHtB-78" target="7aAcNcoSvBuqV2yAwHtB-47">
          <mxGeometry width="50" height="50" relative="1" as="geometry">
            <mxPoint x="845" y="546" as="sourcePoint" />
            <mxPoint x="790" y="560" as="targetPoint" />
          </mxGeometry>
        </mxCell>
        <mxCell id="7aAcNcoSvBuqV2yAwHtB-80" value="수강신청" style="rhombus;whiteSpace=wrap;html=1;" vertex="1" parent="1">
          <mxGeometry x="330" y="550" width="100" height="40" as="geometry" />
        </mxCell>
        <mxCell id="7aAcNcoSvBuqV2yAwHtB-81" value="" style="endArrow=none;html=1;rounded=0;entryX=0.5;entryY=0;entryDx=0;entryDy=0;exitX=0.5;exitY=1;exitDx=0;exitDy=0;" edge="1" parent="1" source="7aAcNcoSvBuqV2yAwHtB-2" target="7aAcNcoSvBuqV2yAwHtB-80">
          <mxGeometry width="50" height="50" relative="1" as="geometry">
            <mxPoint x="430" y="486" as="sourcePoint" />
            <mxPoint x="495" y="486" as="targetPoint" />
          </mxGeometry>
        </mxCell>
        <mxCell id="7aAcNcoSvBuqV2yAwHtB-83" value="" style="shape=link;html=1;rounded=0;exitX=1;exitY=0.5;exitDx=0;exitDy=0;entryX=0;entryY=0.5;entryDx=0;entryDy=0;" edge="1" parent="1" source="7aAcNcoSvBuqV2yAwHtB-80" target="7aAcNcoSvBuqV2yAwHtB-1">
          <mxGeometry width="100" relative="1" as="geometry">
            <mxPoint x="585" y="580" as="sourcePoint" />
            <mxPoint x="740" y="580" as="targetPoint" />
          </mxGeometry>
        </mxCell>
        <mxCell id="7aAcNcoSvBuqV2yAwHtB-84" value="성적" style="ellipse;whiteSpace=wrap;html=1;" vertex="1" parent="1">
          <mxGeometry x="200" y="550" width="80" height="40" as="geometry" />
        </mxCell>
        <mxCell id="7aAcNcoSvBuqV2yAwHtB-85" value="" style="endArrow=none;html=1;rounded=0;entryX=1;entryY=0.5;entryDx=0;entryDy=0;exitX=0;exitY=0.5;exitDx=0;exitDy=0;" edge="1" parent="1" source="7aAcNcoSvBuqV2yAwHtB-80" target="7aAcNcoSvBuqV2yAwHtB-84">
          <mxGeometry width="50" height="50" relative="1" as="geometry">
            <mxPoint x="390" y="506" as="sourcePoint" />
            <mxPoint x="390" y="560" as="targetPoint" />
          </mxGeometry>
        </mxCell>
        <mxCell id="7aAcNcoSvBuqV2yAwHtB-86" value="지도" style="rhombus;whiteSpace=wrap;html=1;" vertex="1" parent="1">
          <mxGeometry x="740" y="394" width="100" height="40" as="geometry" />
        </mxCell>
        <mxCell id="7aAcNcoSvBuqV2yAwHtB-90" value="" style="shape=link;html=1;rounded=0;exitX=0.5;exitY=0;exitDx=0;exitDy=0;entryX=0;entryY=0.5;entryDx=0;entryDy=0;" edge="1" parent="1" source="7aAcNcoSvBuqV2yAwHtB-2" target="7aAcNcoSvBuqV2yAwHtB-86">
          <mxGeometry width="100" relative="1" as="geometry">
            <mxPoint x="585" y="580" as="sourcePoint" />
            <mxPoint x="740" y="580" as="targetPoint" />
            <Array as="points">
              <mxPoint x="380" y="414" />
            </Array>
          </mxGeometry>
        </mxCell>
        <mxCell id="7aAcNcoSvBuqV2yAwHtB-91" value="" style="endArrow=none;html=1;rounded=0;entryX=1;entryY=0.5;entryDx=0;entryDy=0;exitX=1;exitY=0.5;exitDx=0;exitDy=0;" edge="1" parent="1" source="7aAcNcoSvBuqV2yAwHtB-86" target="7aAcNcoSvBuqV2yAwHtB-3">
          <mxGeometry width="50" height="50" relative="1" as="geometry">
            <mxPoint x="1130" y="690" as="sourcePoint" />
            <mxPoint x="1000" y="600" as="targetPoint" />
            <Array as="points">
              <mxPoint x="1030" y="414" />
            </Array>
          </mxGeometry>
        </mxCell>
        <mxCell id="7aAcNcoSvBuqV2yAwHtB-92" value="상담학생" style="ellipse;whiteSpace=wrap;html=1;" vertex="1" parent="1">
          <mxGeometry x="660" y="320" width="80" height="40" as="geometry" />
        </mxCell>
        <mxCell id="7aAcNcoSvBuqV2yAwHtB-93" value="상담내용" style="ellipse;whiteSpace=wrap;html=1;" vertex="1" parent="1">
          <mxGeometry x="750" y="320" width="80" height="40" as="geometry" />
        </mxCell>
        <mxCell id="7aAcNcoSvBuqV2yAwHtB-94" value="상담일자" style="ellipse;whiteSpace=wrap;html=1;" vertex="1" parent="1">
          <mxGeometry x="840" y="320" width="80" height="40" as="geometry" />
        </mxCell>
        <mxCell id="7aAcNcoSvBuqV2yAwHtB-95" value="" style="endArrow=none;html=1;rounded=0;entryX=0.5;entryY=1;entryDx=0;entryDy=0;exitX=0.5;exitY=0;exitDx=0;exitDy=0;" edge="1" parent="1" source="7aAcNcoSvBuqV2yAwHtB-86" target="7aAcNcoSvBuqV2yAwHtB-92">
          <mxGeometry width="50" height="50" relative="1" as="geometry">
            <mxPoint x="610" y="470" as="sourcePoint" />
            <mxPoint x="660" y="420" as="targetPoint" />
          </mxGeometry>
        </mxCell>
        <mxCell id="7aAcNcoSvBuqV2yAwHtB-96" value="" style="endArrow=none;html=1;rounded=0;entryX=0.5;entryY=1;entryDx=0;entryDy=0;exitX=0.5;exitY=0;exitDx=0;exitDy=0;" edge="1" parent="1" source="7aAcNcoSvBuqV2yAwHtB-86" target="7aAcNcoSvBuqV2yAwHtB-93">
          <mxGeometry width="50" height="50" relative="1" as="geometry">
            <mxPoint x="800" y="404" as="sourcePoint" />
            <mxPoint x="710" y="370" as="targetPoint" />
          </mxGeometry>
        </mxCell>
        <mxCell id="7aAcNcoSvBuqV2yAwHtB-97" value="" style="endArrow=none;html=1;rounded=0;entryX=0.5;entryY=1;entryDx=0;entryDy=0;exitX=0.5;exitY=0;exitDx=0;exitDy=0;" edge="1" parent="1" source="7aAcNcoSvBuqV2yAwHtB-86" target="7aAcNcoSvBuqV2yAwHtB-94">
          <mxGeometry width="50" height="50" relative="1" as="geometry">
            <mxPoint x="810" y="414" as="sourcePoint" />
            <mxPoint x="720" y="380" as="targetPoint" />
          </mxGeometry>
        </mxCell>
        <mxCell id="7aAcNcoSvBuqV2yAwHtB-98" value="n" style="text;html=1;strokeColor=none;fillColor=none;align=center;verticalAlign=middle;whiteSpace=wrap;rounded=0;" vertex="1" parent="1">
          <mxGeometry x="360" y="426" width="20" height="30" as="geometry" />
        </mxCell>
        <mxCell id="7aAcNcoSvBuqV2yAwHtB-99" value="1" style="text;html=1;strokeColor=none;fillColor=none;align=center;verticalAlign=middle;whiteSpace=wrap;rounded=0;" vertex="1" parent="1">
          <mxGeometry x="970" y="520" width="20" height="30" as="geometry" />
        </mxCell>
        <mxCell id="7aAcNcoSvBuqV2yAwHtB-100" value="1" style="text;html=1;strokeColor=none;fillColor=none;align=center;verticalAlign=middle;whiteSpace=wrap;rounded=0;" vertex="1" parent="1">
          <mxGeometry x="1030" y="520" width="20" height="30" as="geometry" />
        </mxCell>
        <mxCell id="7aAcNcoSvBuqV2yAwHtB-101" value="1" style="text;html=1;strokeColor=none;fillColor=none;align=center;verticalAlign=middle;whiteSpace=wrap;rounded=0;" vertex="1" parent="1">
          <mxGeometry x="420" y="450" width="20" height="30" as="geometry" />
        </mxCell>
        <mxCell id="7aAcNcoSvBuqV2yAwHtB-102" value="1" style="text;html=1;strokeColor=none;fillColor=none;align=center;verticalAlign=middle;whiteSpace=wrap;rounded=0;" vertex="1" parent="1">
          <mxGeometry x="530" y="520" width="20" height="30" as="geometry" />
        </mxCell>
        <mxCell id="7aAcNcoSvBuqV2yAwHtB-103" value="1" style="text;html=1;strokeColor=none;fillColor=none;align=center;verticalAlign=middle;whiteSpace=wrap;rounded=0;" vertex="1" parent="1">
          <mxGeometry x="360" y="496" width="20" height="30" as="geometry" />
        </mxCell>
        <mxCell id="7aAcNcoSvBuqV2yAwHtB-104" value="1" style="text;html=1;strokeColor=none;fillColor=none;align=center;verticalAlign=middle;whiteSpace=wrap;rounded=0;" vertex="1" parent="1">
          <mxGeometry x="930" y="536" width="20" height="30" as="geometry" />
        </mxCell>
        <mxCell id="7aAcNcoSvBuqV2yAwHtB-105" value="n" style="text;html=1;strokeColor=none;fillColor=none;align=center;verticalAlign=middle;whiteSpace=wrap;rounded=0;" vertex="1" parent="1">
          <mxGeometry x="575" y="536" width="20" height="30" as="geometry" />
        </mxCell>
        <mxCell id="7aAcNcoSvBuqV2yAwHtB-106" value="1" style="text;html=1;strokeColor=none;fillColor=none;align=center;verticalAlign=middle;whiteSpace=wrap;rounded=0;" vertex="1" parent="1">
          <mxGeometry x="475" y="536" width="20" height="30" as="geometry" />
        </mxCell>
      </root>
    </mxGraphModel>
  </diagram>
</mxfile>
